<svg xmlns="http://www.w3.org/2000/svg" viewBox="0 0 16 16"><defs><style>.cls-1{fill:#3a7dc1;}.cls-2{fill:#fff;}</style></defs><g id="Layer_2" data-name="Layer 2"><g id="Layer_1-2" data-name="Layer 1"><rect class="cls-1" width="16" height="16" rx="2"/><path class="cls-2" d="M2.78,9V13.8H5.91V9H8.78a3.4,3.4,0,0,0,3-1.83h-9Z"/><path class="cls-2" d="M8.78,2.2h-6V4h9A3.38,3.38,0,0,0,8.78,2.2Z"/><rect class="cls-2" x="6.43" y="4.81" width="3.65" height="0.49"/><rect class="cls-2" x="4.87" y="5.88" width="3.65" height="0.49"/><path class="cls-2" d="M12.33,6a1.45,1.45,0,0,0-.42.9,1.3,1.3,0,0,0,1.31-1.31A1.44,1.44,0,0,0,12.33,6Z"/><path class="cls-2" d="M10.61,5.6a1.46,1.46,0,0,0,1.31-1.31,1.29,1.29,0,0,0-.93.38A1.33,1.33,0,0,0,10.61,5.6Z"/><path class="cls-2" d="M13.21,5.47a1.29,1.29,0,0,0-.37-.8A1.36,1.36,0,0,0,12,4.29a1.5,1.5,0,0,1-.44,1,1.54,1.54,0,0,1-1,.45,1.32,1.32,0,0,0,.37.81,1.29,1.29,0,0,0,.81.37,1.53,1.53,0,0,1,.44-1A1.59,1.59,0,0,1,13.21,5.47Z"/></g></g></svg>